# xmcd CD database file
# Copyright (C) 1995-1998 Ti Kan
#
# Track frame offsets:
#	150
#	13628
#	28383
#	44349
#	57976
#	75002
#	93339
#	109426
#	124385
#	140263
#	156070
#	170723
#	186971
#	198627
#
# Disc length: 2866 seconds
#
# Revision: 10
# Processed by: cddbd v1.5.1PL2 Copyright (c) Steve Scherf et al.
# Submitted via: CDex 1.30
#
DISCID=c10b300e
DTITLE=Avril Lavigne - Under My Skin
DYEAR=2004
DGENRE=Blues
TTITLE0=Take Me Away
TTITLE1=Together
TTITLE2=Don't Tell Me
TTITLE3=He Wasn't
TTITLE4=How Does It Feel
TTITLE5=My Happy Ending
TTITLE6=Nobody's Home
TTITLE7=Forgotten
TTITLE8=Who Knows
TTITLE9=Fall To Pieces
TTITLE10=Freak Out
TTITLE11=Slipped Away
TTITLE12=I Always Get What I Want
TTITLE13=Nobody's Home (LIVE Acoustic)
EXTD=YEAR: 2004  ID3G:   0
EXTT0=
EXTT1=
EXTT2=
EXTT3=
EXTT4=
EXTT5=
EXTT6=
EXTT7=
EXTT8=
EXTT9=
EXTT10=
EXTT11=
EXTT12=
EXTT13=
PLAYORDER=
